<svg width="167" height="36" viewBox="0 0 167 36" fill="none" xmlns="http://www.w3.org/2000/svg">
<path d="M65.0836 13.5843C65.0836 15.1711 63.8557 16.7578 62.5088 17.1545V17.2338C62.5088 17.2338 65.7966 18.0271 65.7966 21.1213C65.7966 24.374 63.618 25.8417 59.6964 25.8417H55.656C55.1807 25.8417 54.943 25.6434 54.943 25.1277V10.1332C54.943 9.6572 55.1411 9.41919 55.656 9.41919H59.8549C63.3407 9.45886 65.0836 11.1249 65.0836 13.5843ZM57.0028 11.2439V16.5198H59.736C61.6374 16.5198 62.9842 15.2901 62.9842 13.7827C62.9842 12.0373 61.9939 11.2439 59.6568 11.2439H57.0028ZM57.0028 18.3048V24.0567H60.4094C62.5089 24.0567 63.6576 22.8666 63.6576 21.0419C63.6576 19.3362 62.4296 18.3048 60.0133 18.3048H57.0028Z" fill="#A62F44"/>
<path d="M77.4031 17.1148V22.3906C77.4031 24.2947 77.6804 25.2071 77.6804 25.3261C77.6804 25.7624 76.7297 25.8814 76.4128 25.8814C75.8582 25.8814 75.7394 24.8897 75.5809 24.255C74.7095 25.2467 73.4023 26.0004 71.6594 26.0004C69.4015 26.0004 67.6586 24.8897 67.6586 22.47C67.6586 18.5032 71.8574 18.2652 75.4225 18.1858V17.0751C75.4225 16.0041 74.7887 15.0917 72.8477 15.0917C70.7087 15.0917 69.4411 16.0834 69.2034 16.0834C68.8865 16.0834 68.3716 15.171 68.3716 14.8934C68.3716 14.2984 70.4314 13.386 72.7685 13.386C75.6998 13.4653 77.4031 14.814 77.4031 17.1148ZM69.7976 22.351C69.7976 23.5807 70.471 24.255 71.7782 24.255C73.4815 24.255 74.5114 23.5013 75.4621 22.6286V19.8519C73.0062 19.9312 69.7976 19.9312 69.7976 22.351Z" fill="#A62F44"/>
<path d="M87.0287 14.4569C87.0287 14.8139 86.593 15.7263 86.2761 15.7263C86.1572 15.7263 85.4046 15.1313 84.137 15.1313C82.9487 15.1313 82.0376 15.6866 82.0376 16.599C82.0376 17.67 82.5525 18.2254 83.8597 18.622C86.7514 19.4947 87.6229 20.2881 87.6229 22.4302C87.6229 24.5326 85.8007 26.0796 83.4636 26.0796C81.3246 26.0796 79.7401 25.1276 79.7401 24.6119C79.7401 24.3739 80.2155 23.4219 80.572 23.4219C80.7304 23.4219 81.6811 24.3739 83.3448 24.3739C84.85 24.3739 85.6423 23.7789 85.6423 22.4698C85.6423 21.3988 85.0481 20.8831 83.3052 20.3674C80.77 19.6137 80.057 18.622 80.057 16.837C80.057 14.8536 81.6811 13.4255 83.939 13.4255C85.563 13.4255 87.0287 13.9412 87.0287 14.4569Z" fill="#A62F44"/>
<path d="M99.9025 19.5745C99.9025 19.8521 99.4271 20.5265 99.1498 20.5265H91.7424C91.9405 23.1446 93.01 24.2949 95.3471 24.2949C97.3673 24.2949 98.5161 23.3032 98.7537 23.3032C99.0706 23.3032 99.5856 24.2156 99.5856 24.4933C99.5856 25.0486 97.7238 26.0007 95.3867 26.0007C91.5048 26.0007 89.643 24.0173 89.643 19.8125C89.643 15.6473 91.5048 13.4656 95.1094 13.4656C98.2784 13.4656 99.9025 15.568 99.9025 19.5745ZM91.7424 18.8604H97.8426C97.8426 16.401 96.892 15.1713 95.0302 15.1713C92.9704 15.1316 91.9009 16.401 91.7424 18.8604Z" fill="#A62F44"/>
<path d="M110.914 9.93487V24.0964H117.331C117.648 24.0964 117.807 24.2947 117.807 24.8104V25.1674C117.807 25.6434 117.648 25.8814 117.331 25.8814H109.528C109.052 25.8814 108.815 25.6831 108.815 25.1674V9.93487C108.815 9.61753 109.092 9.41919 109.765 9.41919H109.963C110.597 9.41919 110.914 9.57786 110.914 9.93487Z" fill="#A62F44"/>
<path d="M129.611 19.7728C129.611 23.8189 127.789 26.0007 124.303 26.0007C120.778 26.0007 118.876 23.8189 118.876 19.7728C118.876 15.7267 120.817 13.4656 124.303 13.4656C127.749 13.4656 129.611 15.687 129.611 19.7728ZM120.936 19.7331C120.936 22.8669 121.926 24.2949 124.224 24.2949C126.521 24.2949 127.551 22.8272 127.551 19.7331C127.551 16.639 126.482 15.1316 124.224 15.1316C121.966 15.1316 120.936 16.5993 120.936 19.7331Z" fill="#A62F44"/>
<path d="M141.851 8.74518V22.391C141.851 24.295 142.128 25.2074 142.128 25.3264C142.128 25.7628 141.178 25.8818 140.861 25.8818C140.306 25.8818 140.187 24.8901 140.029 24.2554C138.88 25.4454 137.652 26.0008 136.306 26.0008C133.493 26.0008 131.75 23.3827 131.75 19.7332C131.75 15.6474 133.731 13.4657 136.504 13.4657C137.969 13.4657 138.92 13.9417 139.831 14.6557V8.74518C139.831 8.42783 140.108 8.22949 140.782 8.22949H140.861C141.574 8.22949 141.851 8.42783 141.851 8.74518ZM133.85 19.5349C133.85 22.5496 134.88 24.2554 136.741 24.2554C137.771 24.2554 138.96 23.7 139.91 22.629V16.2424C139.078 15.5284 138.088 15.1714 137.019 15.1714C134.88 15.2507 133.85 16.7581 133.85 19.5349Z" fill="#A62F44"/>
<path d="M150.685 13.5844H154.963C155.28 13.5844 155.438 13.7827 155.438 14.2984V14.5761C155.438 15.0521 155.28 15.2901 154.963 15.2901C154.21 15.2901 153.774 15.2504 153.339 15.2108L153.299 15.2504C153.695 15.8058 153.893 16.5198 153.893 17.2735C153.893 19.4156 152.309 21.1213 149.298 21.1213C147.912 21.161 147.08 21.5577 147.08 22.7477C147.08 24.2551 148.981 24.2551 150.843 24.4931C152.626 24.7311 154.369 25.1674 154.369 27.3095C154.369 29.5706 152.546 30.84 149.021 30.84C146.209 30.84 144.188 30.0466 144.188 27.9442C144.188 26.5162 145.139 25.5245 146.327 25.0088L146.367 24.9691C145.812 24.5328 145.416 23.9377 145.416 23.065C145.416 21.994 145.892 21.2006 146.724 20.6453C145.377 19.9709 144.703 18.7412 144.703 17.3528C144.703 15.2108 146.288 13.5447 149.298 13.5447C149.774 13.4654 150.249 13.505 150.685 13.5844ZM145.931 27.5475C145.931 28.9756 147.793 29.2532 149.259 29.2532C151.437 29.2532 152.467 28.6979 152.467 27.5079C152.467 25.7625 149.219 26.1988 147.476 25.6435C146.644 26.0005 145.931 26.5558 145.931 27.5475ZM146.486 17.3132C146.486 19.0189 147.714 19.5743 149.259 19.5743C150.804 19.5743 152.071 19.0189 152.071 17.3132C152.071 15.5678 150.804 15.0521 149.259 15.0521C147.714 15.0521 146.486 15.5678 146.486 17.3132Z" fill="#A62F44"/>
<path d="M166.886 19.5745C166.886 19.8521 166.41 20.5265 166.133 20.5265H158.726C158.924 23.1446 159.993 24.2949 162.33 24.2949C164.351 24.2949 165.499 23.3032 165.737 23.3032C166.054 23.3032 166.569 24.2156 166.569 24.4933C166.569 25.0486 164.707 26.0007 162.37 26.0007C158.488 26.0007 156.626 24.0173 156.626 19.8125C156.626 15.6473 158.488 13.4656 162.093 13.4656C165.262 13.4656 166.886 15.568 166.886 19.5745ZM158.726 18.8604H164.826C164.826 16.401 163.875 15.1713 162.014 15.1713C159.954 15.1316 158.884 16.401 158.726 18.8604Z" fill="#A62F44"/>
<path d="M35.793 35.7613H5.70901C2.58147 35.7613 0 33.2808 0 30.168V5.59322C0 2.52911 2.58147 0 5.70901 0H35.7434C38.9206 0 41.4524 2.52911 41.4524 5.59322V30.168C41.502 33.2808 38.9206 35.7613 35.793 35.7613Z" fill="#A52F44"/>
<path d="M3.98093 17.7729L2.53778 15.1317L20.8011 5.2146L38.5668 15.1815L37.1237 17.7729L20.7514 8.60335L3.98093 17.7729Z" fill="white"/>
<path d="M29.858 8.30468V5.86279H34.9837V11.1951L29.858 8.30468Z" fill="white"/>
<path d="M8.31039 28.8861C10.8389 28.8861 12.8887 26.8334 12.8887 24.3013C12.8887 21.7692 10.8389 19.7166 8.31039 19.7166C5.78188 19.7166 3.73212 21.7692 3.73212 24.3013C3.73212 26.8334 5.78188 28.8861 8.31039 28.8861Z" fill="#54AD5B"/>
<path d="M26.5736 18.9692H15.5757V29.9827H26.5736V18.9692Z" fill="#3371BA"/>
<path d="M33.3919 30.6802L29.3112 24.7499L33.3919 18.7698L37.4725 24.7499L33.3919 30.6802Z" fill="black"/>
</svg>
